<svg width="80" height="80" viewBox="0 0 80 80" fill="none" xmlns="http://www.w3.org/2000/svg">
<g clip-path="url(#clip0_684_239)">
<path d="M58 24.8281L54.8114 60.9804L40.4786 65.002L26.1852 60.986L23 24.8281H58Z" fill="#264DE4"/>
<path d="M52.0816 58.675L54.8065 27.7812H40.5V61.9247L52.0816 58.675Z" fill="#2965F1"/>
<path d="M30.3008 41.1914L30.6935 45.626H40.4988V41.1914H30.3008Z" fill="#EBEBEB"/>
<path d="M40.4988 32.2188H40.4836H29.5117L29.91 36.6534H40.4988V32.2188Z" fill="#EBEBEB"/>
<path d="M40.5001 57.3228V52.709L40.4809 52.7142L35.601 51.3806L35.2891 47.8438H32.9179H30.8906L31.5045 54.8067L40.4799 57.3285L40.5001 57.3228Z" fill="#EBEBEB"/>
<path d="M31.2383 15H36.5452V17.2461H33.4575V19.4922H36.5452V21.7383H31.2383V15Z" fill="black"/>
<path d="M37.6055 15H42.9124V16.9531H39.8247V17.3438H42.9124V21.8359H37.6055V19.7852H40.6931V19.3945H37.6055V15Z" fill="black"/>
<path d="M43.9727 15H49.2796V16.9531H46.1919V17.3438H49.2796V21.8359H43.9727V19.7852H47.0603V19.3945H43.9727V15Z" fill="black"/>
<path d="M45.8799 45.6291L45.3713 51.3805L40.4844 52.7154V57.3291L49.467 54.8095L49.5329 54.0603L50.5625 42.3854L50.6694 41.1945L51.4604 32.2188H40.4844V36.6534H46.6585L46.2598 41.1945H40.4844V45.6291H45.8799Z" fill="white"/>
</g>
<defs>
<clipPath id="clip0_684_239">
<rect width="35" height="50" fill="white" transform="translate(23 15)"/>
</clipPath>
</defs>
</svg>
