<svg width="80" height="80" viewBox="0 0 80 80" fill="none" xmlns="http://www.w3.org/2000/svg">
<rect width="80" height="80" fill="#F3F3F3"/>
<g clip-path="url(#clip0_684_268)">
<path d="M32.2523 64.9987C36.8053 64.9987 40.5006 61.2654 40.5006 56.6654V48.332H32.2523C27.6992 48.332 24.0039 52.0654 24.0039 56.6654C24.0039 61.2654 27.6992 64.9987 32.2523 64.9987Z" fill="#0ACF83"/>
<path d="M24.0039 40.0013C24.0039 35.4013 27.6992 31.668 32.2523 31.668H40.5006V48.3346H32.2523C27.6992 48.3346 24.0039 44.6013 24.0039 40.0013Z" fill="#A259FF"/>
<path d="M24.0039 23.3333C24.0039 18.7333 27.6992 15 32.2523 15H40.5006V31.6667H32.2523C27.6992 31.6667 24.0039 27.9333 24.0039 23.3333Z" fill="#F24E1E"/>
<path d="M40.5 15H48.7484C53.3014 15 56.9967 18.7333 56.9967 23.3333C56.9967 27.9333 53.3014 31.6667 48.7484 31.6667H40.5V15Z" fill="#FF7262"/>
<path d="M56.9967 40.0013C56.9967 44.6013 53.3014 48.3346 48.7484 48.3346C44.1953 48.3346 40.5 44.6013 40.5 40.0013C40.5 35.4013 44.1953 31.668 48.7484 31.668C53.3014 31.668 56.9967 35.4013 56.9967 40.0013Z" fill="#1ABCFE"/>
</g>
<defs>
<clipPath id="clip0_684_268">
<rect width="33" height="50" fill="white" transform="translate(24 15)"/>
</clipPath>
</defs>
</svg>
