<svg width="80" height="80" viewBox="0 0 80 80" fill="none" xmlns="http://www.w3.org/2000/svg">
<path d="M25.5859 15H27.832V17.2266H29.9023V15H32.1484V21.7383H29.9023V19.4922H27.8516V21.7383H25.5859M35.1172 17.2461H33.1348V15H39.3555V17.2461H37.3633V21.7383H35.1172M40.3418 15H42.6953L44.1406 17.373L45.5859 15H47.9395V21.7383H45.6934V18.3984L44.1211 20.8203L42.5488 18.3984V21.7383H40.3418M49.0527 15H51.2988V19.5117H54.4824V21.7383H49.0527" fill="black"/>
<path d="M25.5078 60.9961L22.2852 24.8242H57.7148L54.4922 60.9766L39.9707 65" fill="#E44D26"/>
<path d="M40 61.9238V27.793H54.4824L51.7188 58.6523" fill="#F16529"/>
<path d="M28.8672 32.2188H40V36.6523H33.7305L34.1406 41.1934H40V45.6172H30.0781M30.2734 47.8437H34.7266L35.0391 51.3887L40 52.7168V57.3457L30.8984 54.8066" fill="#EBEBEB"/>
<path d="M51.0938 32.2188H39.9805V36.6523H50.6836M50.2832 41.1934H39.9805V45.627H45.4492L44.9316 51.3887L39.9805 52.7168V57.3262L49.0625 54.8066" fill="white"/>
</svg>
