<svg width="80" height="80" viewBox="0 0 80 80" fill="none" xmlns="http://www.w3.org/2000/svg">
<g clip-path="url(#clip0_684_247)">
<path d="M22.1211 24.7695L22.1268 25.2164C22.1299 25.4621 22.8518 33.5989 23.731 43.298L25.3295 60.9329L32.5142 62.9169C36.4658 64.0081 39.7805 64.9064 39.8802 64.9133C39.9798 64.9202 43.3383 64.0309 47.3434 62.9371C53.7648 61.1835 54.6317 60.9194 54.6777 60.7023C54.7417 60.3999 57.8863 25.412 57.8831 25.0376L57.8808 24.7695H40.0009H22.1211Z" fill="white"/>
<path d="M32.5709 63.0355L25.3223 61.0371L25.2276 60.5083C25.1433 60.0383 22 25.4114 22 24.9539C22 24.7883 23.8353 24.7695 40.0007 24.7695C57.0642 24.7695 58.0013 24.7804 58 24.9781C57.9943 25.8318 54.7407 60.9171 54.6607 60.987C54.5597 61.0752 40.5299 64.9303 40.0611 64.9986C39.9282 65.018 36.5576 64.1346 32.5709 63.0355ZM44.5713 55.9744C47.0077 55.3117 49.0362 54.7353 49.0792 54.6935C49.1221 54.6518 49.4072 51.8026 49.7127 48.362C50.0182 44.9214 50.299 41.8785 50.3366 41.6L50.4052 41.0936H45.1425H39.8799V43.298V45.5023H42.7212H45.5626L45.506 45.7704C45.4749 45.9179 45.3541 47.185 45.2375 48.5863C45.114 50.0711 44.9675 51.1913 44.8864 51.2712C44.8099 51.3467 43.6522 51.6963 42.3136 52.0482L39.8799 52.688V54.9337C39.8799 56.4665 39.9214 57.1794 40.0108 57.1794C40.0827 57.1794 42.135 56.6372 44.5713 55.9744ZM50.3359 38.3233C50.256 37.7394 49.5447 29.9084 49.5447 29.6131C49.5447 29.4338 49.1265 29.4165 44.7727 29.4165H40.0007V31.7216V34.0267L42.1451 34.1082C43.3245 34.153 44.5657 34.2213 44.9033 34.2598L45.5172 34.3299L45.6662 36.133C45.7482 37.1247 45.8459 38.1371 45.8833 38.3829L45.9513 38.8297H48.1782H50.4052L50.3359 38.3233Z" fill="#EAEBEC"/>
<path d="M32.5143 62.9168L25.3296 60.9327L23.731 43.298C22.8518 33.5988 22.1299 25.4621 22.1268 25.2164L22.1211 24.7695H40.001H57.8809L57.8832 25.0376C57.8864 25.412 54.7418 60.3999 54.6777 60.7023C54.6317 60.9194 53.7649 61.1835 47.3435 62.9372C43.3383 64.0309 39.9798 64.9202 39.8802 64.9133C39.7805 64.9064 36.4658 64.008 32.5143 62.9168ZM44.5771 56.0587C47.0607 55.3777 49.128 54.7642 49.1711 54.6954C49.2142 54.6267 49.5109 51.632 49.8304 48.0406C50.15 44.4491 50.4376 41.4168 50.4696 41.3021C50.5245 41.1051 50.1019 41.0936 42.812 41.0936H35.0963L35.4248 37.6679C35.6055 35.7838 35.7576 34.2374 35.763 34.2314C35.7683 34.2255 36.9007 34.1898 38.2794 34.1523C40.5402 34.0906 45.2023 34.2685 45.3582 34.4223C45.4165 34.4798 45.7999 38.1891 45.7999 38.6955C45.7999 38.9451 45.834 38.9488 48.1408 38.9488H50.4818L50.4266 38.4424C50.3963 38.1639 50.198 36.0057 49.9859 33.6465L49.6004 29.357L40.5724 29.3264C33.39 29.3021 31.5441 29.3265 31.5433 29.4456C31.5426 29.5279 31.4901 30.051 31.4263 30.6081C31.2719 31.956 30.0946 44.98 30.0946 45.3398V45.6215H37.7766H45.4587L45.3902 46.0683C45.3525 46.3141 45.2331 47.5607 45.1248 48.8386C45.0165 50.1165 44.8931 51.1951 44.8505 51.2355C44.7379 51.3421 40.2187 52.5328 39.9368 52.5302C39.806 52.5289 38.6388 52.2417 37.3432 51.8919L34.9874 51.2559L34.901 50.2558C34.8535 49.7057 34.7812 48.9205 34.7403 48.511L34.6661 47.7662H32.3803H30.0946L30.0996 48.2131C30.1091 49.0487 30.6585 54.6773 30.7383 54.756C30.8305 54.847 39.6098 57.281 39.8802 57.2905C39.9798 57.2941 42.0934 56.7397 44.5771 56.0587Z" fill="#F0BE25"/>
<path d="M32.5143 62.9168L25.3296 60.9327L23.731 43.298C22.8518 33.5988 22.1299 25.4621 22.1268 25.2164L22.1211 24.7695H40.001H57.8809L57.8832 25.0376C57.8864 25.412 54.7418 60.3999 54.6777 60.7023C54.6317 60.9194 53.7649 61.1835 47.3435 62.9372C43.3383 64.0309 39.9798 64.9202 39.8802 64.9133C39.7805 64.9064 36.4658 64.008 32.5143 62.9168ZM45.9128 60.2625C49.0733 59.4024 51.7185 58.6383 51.7911 58.5646C51.904 58.4498 54.6336 28.944 54.6226 27.9569L54.619 27.6292H47.31H40.001V28.4633V29.2974H35.7726C32.471 29.2974 31.5441 29.33 31.5433 29.4463C31.5426 29.5282 31.4901 30.051 31.4263 30.6081C31.2719 31.956 30.0946 44.98 30.0946 45.3398V45.6215H35.0478H40.001V49.0769C40.001 51.7631 39.9674 52.5319 39.85 52.5302C39.7669 52.5289 38.6388 52.2417 37.3432 51.8919L34.9874 51.2559L34.901 50.2558C34.8535 49.7057 34.7812 48.9205 34.7403 48.511L34.6661 47.7662H32.3803H30.0946L30.0996 48.2131C30.1141 49.4911 30.6747 54.7081 30.8061 54.7882C30.886 54.8369 32.9876 55.4325 35.4762 56.1117L40.001 57.3466V59.5865C40.001 60.8185 40.0382 61.8264 40.0837 61.8264C40.1292 61.8264 42.7523 61.1227 45.9128 60.2625ZM35.412 37.7C35.5857 35.8335 35.7515 34.2852 35.7804 34.2594C35.8094 34.2335 36.7708 34.1868 37.917 34.1556L40.001 34.0987V37.5962V41.0936H37.5486H35.0963L35.412 37.7Z" fill="#E4A126"/>
<path d="M33.4766 20.5407V19.4087H35.1075H36.7384V17.2043V15H37.8861H39.0338V18.3363V21.6726H36.2552H33.4766V20.5407ZM40.1211 20.779V19.8853H41.6312C42.4618 19.8853 43.1414 19.855 43.1414 19.818C43.1414 19.781 42.4618 19.0243 41.6312 18.1365L40.1211 16.5223V15.7611V15H43.2622H46.4032V15.89V16.78L44.9286 16.8134L43.4541 16.8469L44.989 18.4773L46.524 20.1077V20.8902V21.6726H43.3226H40.1211V20.779Z" fill="#0E0E0F"/>
</g>
<defs>
<clipPath id="clip0_684_247">
<rect width="36" height="50" fill="white" transform="translate(22 15)"/>
</clipPath>
</defs>
</svg>
