<svg width="80" height="80" viewBox="0 0 80 80" fill="none" xmlns="http://www.w3.org/2000/svg">
<g clip-path="url(#clip0_684_296)">
<path d="M18.0085 17.1571L45.675 15.1136C49.0735 14.8221 49.9465 15.0186 52.0835 16.5721L60.915 22.7936C62.3715 23.8636 62.8565 24.1551 62.8565 25.3201V59.4416C62.8565 61.5801 62.08 62.8451 59.3615 63.0381L27.2335 64.9841C25.1935 65.0806 24.222 64.7891 23.1535 63.4276L16.65 54.9706C15.4835 53.4141 15 52.2491 15 50.8871V20.5571C15 18.8086 15.7765 17.3506 18.0085 17.1571Z" fill="white"/>
<path fill-rule="evenodd" clip-rule="evenodd" d="M46.675 15.1141L19.0085 17.1576C16.7765 17.3506 16 18.8091 16 20.5571V50.8871C16 52.2486 16.4835 53.4136 17.65 54.9706L24.1535 63.4271C25.222 64.7886 26.1935 65.0806 28.2335 64.9836L60.362 63.0386C63.0785 62.8451 63.857 61.5801 63.857 59.4421V25.3206C63.857 24.2156 63.4205 23.8971 62.1355 22.9541L53.0835 16.5721C50.947 15.0186 50.0735 14.8221 46.675 15.1136V15.1141ZM28.96 24.7621C26.3365 24.9386 25.7415 24.9786 24.2515 23.7671L20.4635 20.7541C20.0785 20.3641 20.272 19.8776 21.242 19.7806L47.8385 17.8371C50.072 17.6421 51.235 18.4206 52.1085 19.1006L56.67 22.4056C56.865 22.5041 57.35 23.0856 56.7665 23.0856L29.3 24.7391L28.96 24.7621ZM25.9015 59.1506V30.1841C25.9015 28.9191 26.29 28.3356 27.453 28.2376L59 26.3906C60.07 26.2941 60.5535 26.9741 60.5535 28.2371V57.0106C60.5535 58.2756 60.3585 59.3456 58.612 59.4421L28.4235 61.1921C26.677 61.2886 25.902 60.7071 25.902 59.1506H25.9015ZM55.7015 31.7371C55.895 32.6121 55.7015 33.4871 54.8265 33.5871L53.3715 33.8756V55.2621C52.108 55.9421 50.945 56.3306 49.973 56.3306C48.4195 56.3306 48.0315 55.8441 46.868 54.3871L37.353 39.4171V53.9006L40.363 54.5821C40.363 54.5821 40.363 56.3321 37.9345 56.3321L31.2395 56.7206C31.0445 56.3306 31.2395 55.3591 31.918 55.1656L33.6665 54.6806V35.5306L31.24 35.3341C31.045 34.4591 31.53 33.1956 32.89 33.0976L40.0735 32.6141L49.9735 47.7776V34.3626L47.45 34.0726C47.255 33.0011 48.0315 32.2226 49.0015 32.1276L55.7015 31.7371Z" fill="black"/>
</g>
<defs>
<clipPath id="clip0_684_296">
<rect width="50" height="50" fill="white" transform="translate(15 15)"/>
</clipPath>
</defs>
</svg>
