<svg width="80" height="80" viewBox="0 0 80 80" fill="none" xmlns="http://www.w3.org/2000/svg">
<g clip-path="url(#clip0_684_307)">
<path d="M59.4675 42.9894C57.5847 42.9992 55.9483 43.4473 54.5781 44.1097C54.0753 43.1258 53.5726 42.249 53.4839 41.6061C53.3853 40.8559 53.267 40.3981 53.3853 39.5018C53.5036 38.6056 54.0359 37.3294 54.0261 37.232C54.0162 37.1346 53.9078 36.6767 52.8234 36.667C51.7391 36.6572 50.8026 36.8715 50.6942 37.154C50.5858 37.4366 50.3787 38.0795 50.2407 38.742C50.0534 39.7161 48.0721 43.194 46.9384 45.0157C46.5737 44.3046 46.2583 43.6811 46.1893 43.1842C46.0907 42.4341 45.9724 41.9763 46.0907 41.08C46.209 40.1838 46.7413 38.9076 46.7314 38.8102C46.7216 38.7127 46.6131 38.2549 45.5288 38.2451C44.4445 38.2354 43.508 38.4497 43.3996 38.7322C43.2911 39.0147 43.1728 39.6772 42.9461 40.3201C42.7194 40.9631 40.0874 46.7692 39.3974 48.2695C39.0425 49.0391 38.7369 49.6528 38.52 50.0717C38.52 50.0717 38.5102 50.101 38.4806 50.1497C38.2933 50.5101 38.1849 50.7049 38.1849 50.7049C38.1849 50.7049 38.1849 50.7049 38.1849 50.7147C38.037 50.9777 37.8793 51.2213 37.8004 51.2213C37.7413 51.2213 37.6329 50.5199 37.8201 49.5652C38.2145 47.5486 39.1509 44.4117 39.1411 44.3046C39.1411 44.2461 39.3185 43.7006 38.5299 43.418C37.761 43.1355 37.485 43.6031 37.416 43.6031C37.347 43.6031 37.2977 43.7688 37.2977 43.7688C37.2977 43.7688 38.1553 40.2422 35.6613 40.2422C34.1038 40.2422 31.9549 41.9275 30.8902 43.4473C30.2199 43.8077 28.7906 44.5773 27.2626 45.4054C26.681 45.7269 26.0797 46.0483 25.5178 46.3503C25.4784 46.3114 25.439 46.2627 25.3996 46.2237C22.3831 43.0381 16.8037 40.7878 17.0403 36.5111C17.129 34.9524 17.6712 30.8608 27.7555 25.8925C36.0556 21.8496 42.6602 22.9699 43.8037 25.4541C45.4401 29.0001 40.2648 35.5856 31.6887 36.5403C28.416 36.9008 26.7008 35.6538 26.267 35.1862C25.8136 34.6991 25.7446 34.6699 25.577 34.7673C25.301 34.9134 25.4784 35.3518 25.577 35.6051C25.8333 36.2675 26.8881 37.4366 28.6723 38.0113C30.2495 38.5179 34.0841 38.8004 38.727 37.0274C43.922 35.0401 47.9833 29.5164 46.7906 24.8891C45.5978 20.1935 37.7117 18.6445 30.2495 21.2651C25.8136 22.8238 21.0031 25.2787 17.543 28.4741C13.4324 32.2734 12.7818 35.5759 13.048 36.9592C14.0042 41.8691 20.8552 45.0644 23.5956 47.4317C23.4576 47.5096 23.3295 47.5778 23.221 47.6363C21.8508 48.3085 16.6263 51.0069 15.3251 53.8613C13.8464 57.0956 15.5617 59.4142 16.6953 59.7259C20.2145 60.6903 23.8322 58.9563 25.7741 56.0922C27.7161 53.2281 27.4795 49.5067 26.5825 47.8019C26.5726 47.7824 26.5628 47.7629 26.543 47.7434C26.8979 47.5388 27.2626 47.3245 27.6175 47.1199C28.3174 46.7108 29.0074 46.3309 29.5989 46.0191C29.2637 46.9251 29.0173 48.0065 28.899 49.5652C28.7511 51.3966 29.5102 53.7736 30.5058 54.7088C30.9494 55.118 31.4718 55.1277 31.807 55.1277C32.9702 55.1277 33.4927 54.173 34.0743 53.043C34.784 51.6596 35.4247 50.0522 35.4247 50.0522C35.4247 50.0522 34.6263 54.3971 36.795 54.3971C37.5836 54.3971 38.382 53.384 38.7369 52.8676C38.7369 52.8774 38.7369 52.8774 38.7369 52.8774C38.7369 52.8774 38.7566 52.8482 38.7961 52.78C38.8749 52.6533 38.9242 52.5754 38.9242 52.5754C38.9242 52.5754 38.9242 52.5656 38.9242 52.5559C39.2396 52.0104 39.9494 50.7731 41.0042 48.7176C42.3645 46.0678 43.6756 42.7556 43.6756 42.7556C43.6756 42.7556 43.7939 43.5642 44.198 44.9086C44.4346 45.6976 44.9275 46.5647 45.3218 47.4025C45.0063 47.8408 44.8092 48.0844 44.8092 48.0844C44.8092 48.0844 44.8092 48.0844 44.8191 48.0941C44.5628 48.4254 44.2867 48.7858 43.9812 49.1365C42.9067 50.4029 41.6252 51.8545 41.4477 52.2734C41.2407 52.7702 41.29 53.1307 41.6843 53.4229C41.9702 53.6372 42.4828 53.6665 43.0053 53.6372C43.9713 53.569 44.6515 53.3352 44.9866 53.1891C45.5091 53.004 46.1203 52.7215 46.692 52.3026C47.7468 51.533 48.3875 50.4322 48.3284 48.9806C48.2988 48.1818 48.0326 47.383 47.7073 46.6329C47.8059 46.4965 47.8946 46.3601 47.9932 46.2237C49.6591 43.8175 50.9505 41.1774 50.9505 41.1774C50.9505 41.1774 51.0688 41.986 51.4729 43.3304C51.6701 44.0123 52.0743 44.7527 52.4291 45.4736C50.8618 46.7303 49.8957 48.1916 49.5507 49.1463C48.9297 50.9193 49.4127 51.7181 50.3295 51.9032C50.7435 51.9909 51.3349 51.796 51.7687 51.6109C52.3207 51.4356 52.9713 51.1336 53.5923 50.6855C54.6471 49.9159 55.6624 48.8443 55.6033 47.3927C55.5737 46.7303 55.3963 46.0776 55.1498 45.4444C56.4806 44.8988 58.1958 44.5968 60.3842 44.8501C65.0764 45.3956 66.0031 48.289 65.8256 49.5067C65.6482 50.7244 64.6624 51.3869 64.3371 51.5915C64.0118 51.796 63.9034 51.8642 63.933 52.0104C63.9724 52.2247 64.1301 52.2149 64.4061 52.176C64.7906 52.1078 66.8705 51.192 66.9593 48.9514C67.1071 46.0873 64.347 42.9602 59.4675 42.9894ZM23.2703 55.0498C21.7128 56.7254 19.5441 57.3586 18.6077 56.8228C17.6022 56.2481 17.9965 53.7736 19.9089 52.0006C21.0721 50.9193 22.5704 49.9159 23.566 49.3021C23.7928 49.1657 24.1279 48.9709 24.5321 48.7274C24.6011 48.6884 24.6405 48.6689 24.6405 48.6689C24.7194 48.6202 24.7982 48.5715 24.8771 48.5228C25.577 51.0557 24.9067 53.2865 23.2703 55.0498ZM34.6066 47.4317C34.0644 48.7371 32.9308 52.0785 32.2407 51.8935C31.6493 51.7376 31.2845 49.2047 32.1224 46.701C32.5463 45.4444 33.4434 43.9441 33.9658 43.3596C34.8136 42.4244 35.75 42.1126 35.9768 42.4926C36.2626 42.9894 34.9417 46.6134 34.6066 47.4317ZM43.9614 51.8545C43.7347 51.9714 43.5178 52.0493 43.4193 51.9909C43.3503 51.9519 43.5178 51.796 43.5178 51.796C43.5178 51.796 44.6909 50.5491 45.1542 49.984C45.4204 49.6528 45.7358 49.2632 46.071 48.8248C46.071 48.8637 46.071 48.9124 46.071 48.9514C46.071 50.4419 44.612 51.4453 43.9614 51.8545ZM51.1772 50.2276C51.0096 50.1107 51.0392 49.721 51.6011 48.5033C51.818 48.0259 52.3306 47.2271 53.2079 46.4575C53.3065 46.7692 53.3755 47.0712 53.3656 47.3538C53.3557 49.2339 51.9954 49.9353 51.1772 50.2276Z" fill="#CD6799"/>
</g>
<defs>
<clipPath id="clip0_684_307">
<rect width="54" height="40" fill="white" transform="translate(13 20)"/>
</clipPath>
</defs>
</svg>
