<svg width="80" height="80" viewBox="0 0 80 80" fill="none" xmlns="http://www.w3.org/2000/svg">
<g clip-path="url(#clip0_684_282)">
<path fill-rule="evenodd" clip-rule="evenodd" d="M33.3464 15C30.588 15.002 28.3556 17.2406 28.3576 19.999C28.3556 22.7574 30.59 24.9959 33.3484 24.998H38.3393V20.001C38.3413 17.2426 36.1069 15.0041 33.3464 15C33.3484 15 33.3484 15 33.3464 15ZM33.3464 28.3333H20.0416C17.2832 28.3354 15.0487 30.5739 15.0508 33.3323C15.0467 36.0907 17.2812 38.3293 20.0396 38.3333H33.3464C36.1048 38.3313 38.3393 36.0928 38.3372 33.3344C38.3393 30.5739 36.1048 28.3354 33.3464 28.3333Z" fill="#36C5F0"/>
<path fill-rule="evenodd" clip-rule="evenodd" d="M64.9505 33.3323C64.9525 30.5739 62.7181 28.3354 59.9597 28.3333C57.2013 28.3354 54.9668 30.5739 54.9689 33.3323V38.3333H59.9597C62.7181 38.3313 64.9525 36.0928 64.9505 33.3323ZM51.6437 33.3323V19.999C51.6457 17.2426 49.4133 15.0041 46.6549 15C43.8965 15.002 41.662 17.2406 41.6641 19.999V33.3323C41.66 36.0907 43.8944 38.3293 46.6529 38.3333C49.4113 38.3313 51.6457 36.0928 51.6437 33.3323Z" fill="#2EB67D"/>
<path fill-rule="evenodd" clip-rule="evenodd" d="M46.6549 64.9994C49.4133 64.9974 51.6478 62.7589 51.6457 60.0005C51.6478 57.242 49.4133 55.0035 46.6549 55.0015H41.6641V60.0005C41.662 62.7568 43.8965 64.9954 46.6549 64.9994ZM46.6549 51.6641H59.9617C62.7201 51.662 64.9546 49.4235 64.9525 46.6651C64.9566 43.9067 62.7222 41.6681 59.9638 41.6641H46.6569C43.8985 41.6661 41.6641 43.9046 41.6661 46.663C41.6641 49.4235 43.8965 51.662 46.6549 51.6641Z" fill="#ECB22E"/>
<path fill-rule="evenodd" clip-rule="evenodd" d="M15.0508 46.6669C15.0487 49.4254 17.2832 51.6639 20.0416 51.6659C22.8 51.6639 25.0345 49.4254 25.0324 46.6669V41.668H20.0416C17.2832 41.67 15.0487 43.9085 15.0508 46.6669ZM28.3576 46.6669V60.0003C28.3535 62.7587 30.588 64.9972 33.3464 65.0013C36.1048 64.9993 38.3393 62.7607 38.3372 60.0023V46.671C38.3413 43.9126 36.1068 41.6741 33.3484 41.67C30.588 41.67 28.3556 43.9085 28.3576 46.6669Z" fill="#E01E5A"/>
</g>
<defs>
<clipPath id="clip0_684_282">
<rect width="50" height="50" fill="white" transform="translate(15 15)"/>
</clipPath>
</defs>
</svg>
