<svg width="80" height="80" viewBox="0 0 80 80" fill="none" xmlns="http://www.w3.org/2000/svg">
<g clip-path="url(#clip0_684_204)">
<path d="M15 40V65H40H65V40V15H40H15V40Z" fill="#007ACC"/>
<path d="M26.057 40.1674L26.0411 42.215H29.2951H32.549V51.461V60.707H34.8506H37.1522V51.461V42.215H40.4062H43.6602V40.207C43.6602 39.0959 43.6363 38.1674 43.6046 38.1435C43.5808 38.1118 39.6205 38.0959 34.8189 38.1039L26.0808 38.1277L26.057 40.1674Z" fill="white"/>
<path d="M55.3449 38.0669C56.6147 38.3844 57.5829 38.9478 58.4718 39.8685C58.9322 40.3605 59.6147 41.2574 59.6702 41.4717C59.6861 41.5351 57.5115 42.9955 56.1941 43.8129C56.1464 43.8447 55.956 43.6383 55.7417 43.3209C55.0988 42.3844 54.4242 41.9796 53.3925 41.9082C51.8766 41.805 50.9004 42.5986 50.9083 43.924C50.9083 44.3129 50.9639 44.5431 51.1226 44.8605C51.456 45.551 52.075 45.9637 54.0195 46.805C57.5988 48.3447 59.1306 49.3605 60.0829 50.805C61.1464 52.4161 61.3845 54.9875 60.6623 56.9002C59.8687 58.9796 57.9004 60.3923 55.1306 60.8605C54.2734 61.0113 52.2417 60.9875 51.321 60.8209C49.3131 60.4637 47.4083 59.4717 46.2337 58.1701C45.7734 57.6621 44.8766 56.3367 44.9322 56.2415C44.956 56.2098 45.1623 56.0828 45.3925 55.9478C45.6147 55.8209 46.456 55.3367 47.2496 54.8764L48.6861 54.0431L48.9877 54.4875C49.4083 55.1304 50.329 56.0113 50.8845 56.305C52.4798 57.1463 54.6702 57.0272 55.7496 56.059C56.2099 55.6383 56.4004 55.2018 56.4004 54.559C56.4004 53.9796 56.329 53.7256 56.0274 53.2891C55.6385 52.7336 54.8448 52.2653 52.5909 51.2891C50.0115 50.178 48.9004 49.4875 47.8845 48.3923C47.2972 47.7574 46.7417 46.7415 46.5115 45.8923C46.321 45.1859 46.2734 43.4161 46.4242 42.7018C46.956 40.2098 48.8369 38.4717 51.5512 37.9558C52.4322 37.7891 54.4798 37.8526 55.3449 38.0669Z" fill="white"/>
</g>
<defs>
<clipPath id="clip0_684_204">
<rect width="50" height="50" fill="white" transform="translate(15 15)"/>
</clipPath>
</defs>
</svg>
