<svg width="32" height="32" viewBox="0 0 32 32" fill="none" xmlns="http://www.w3.org/2000/svg">
<g clip-path="url(#clip0_1128_25081)">
<path d="M32 25.145H30.48V26.665H32V25.145Z" fill="#000001"/>
<path d="M32 14.475V11.425H30.48V12.955H28.95V9.905H27.43V16.005H25.9V14.475H24.38V17.525H27.43V22.095H19.81V23.625H32V22.095H28.95V14.475H32Z" fill="#000001"/>
<path d="M32 0.764999H28.95V2.285H32V0.764999Z" fill="#000001"/>
<path d="M27.43 25.145H25.9V26.665H27.43V25.145Z" fill="#000001"/>
<path d="M27.43 3.815H24.38V5.335H27.43V3.815Z" fill="#000001"/>
<path d="M21.33 25.145H19.81V26.665H21.33V25.145Z" fill="#000001"/>
<path d="M19.81 9.905H15.24V11.425H19.81V12.955H21.33V5.335H19.81V9.905Z" fill="#000001"/>
<path d="M13.71 16.005H10.67V17.525H13.71V19.045H10.67V17.525H9.14V23.625H13.71V25.145H9.14V26.665H4.57V28.2H6.1V31.24H9.14V29.72H7.62V28.2H12.19V26.67H13.71V28.2H16.76V26.67H15.24V20.58H16.76V22.1H18.29V19.05H15.24V14.48H19.81V12.96H13.71V16.005ZM13.71 22.095H10.67V20.575H13.71V22.095Z" fill="#000001"/>
<path d="M13.71 0.764999H10.67V2.285H13.71V0.764999Z" fill="#000001"/>
<path d="M10.67 6.855H9.14V9.905H10.67V6.855Z" fill="#000001"/>
<path d="M19.81 3.815H7.62V5.335H19.81V3.815Z" fill="#000001"/>
<path d="M9.14 23.625H7.62V25.145H9.14V23.625Z" fill="#000001"/>
<path d="M7.62 5.335H6.1V16.005H7.62V5.335Z" fill="#000001"/>
<path d="M6.1 16.005H4.57V20.575H6.1V16.005Z" fill="#000001"/>
<path d="M4.57 25.145H3.05V26.665H4.57V25.145Z" fill="#000001"/>
<path d="M4.57 20.575H3.05V22.095H4.57V20.575Z" fill="#000001"/>
<path d="M3.05 23.625H1.52V25.145H3.05V23.625Z" fill="#000001"/>
<path d="M3.05 5.335H0V6.855H3.05V5.335Z" fill="#000001"/>
<path d="M1.52 20.575H3.05V19.045H1.52V17.525H0V23.625H1.52V20.575Z" fill="#000001"/>
</g>
<defs>
<clipPath id="clip0_1128_25081">
<rect width="32" height="32" fill="white"/>
</clipPath>
</defs>
</svg>
