<svg width="32" height="32" viewBox="0 0 32 32" fill="none" xmlns="http://www.w3.org/2000/svg">
<g clip-path="url(#clip0_1128_24735)">
<path d="M29.715 23.62H28.185V22.1H26.665V20.57H25.145V17.53H23.615V20.57H22.1V22.1H20.58V23.62H17.53V25.14H20.58V26.67H22.1V28.19H23.62V29.72H25.15V31.24H29.72V29.72H31.24V25.14H29.72L29.715 23.62ZM29.715 28.19H28.185V26.67H26.665V25.14H25.145V23.62H26.665V25.14H28.185V26.67H29.715V28.19Z" fill="#000001"/>
<path d="M26.665 9.91H25.145V17.53H26.665V9.91Z" fill="#000001"/>
<path d="M25.145 6.86H23.615V9.91H25.145V6.86Z" fill="#000001"/>
<path d="M23.615 5.33H22.095V6.86H23.615V5.33Z" fill="#000001"/>
<path d="M22.095 3.81001H20.575V5.33001H22.095V3.81001Z" fill="#000001"/>
<path d="M20.575 6.86H19.045V9.91H20.575V6.86Z" fill="#000001"/>
<path d="M19.045 20.57H20.575V17.53H19.045V14.48H22.1V12.95H19.05V9.91H17.53V8.38H16V9.91H11.43V8.38H9.90002V9.91H8.37502V12.95H5.33502V14.48H8.37502V17.53H6.85502V20.57H8.37502V19.05H11.425V20.57H16V19.05H19.05L19.045 20.57ZM17.525 14.48H14.475V19.05H12.955V14.48H9.90002V12.95H17.52L17.525 14.48Z" fill="#000001"/>
<path d="M20.575 2.29H17.525V3.81H20.575V2.29Z" fill="#000001"/>
<path d="M17.525 25.14H9.90503V26.67H17.525V25.14Z" fill="#000001"/>
<path d="M15.995 8.38V6.86H17.525V5.33H14.475V6.86H12.955V5.33H9.90503V6.86H11.425V8.38H15.995Z" fill="#000001"/>
<path d="M17.525 0.760002H9.90503V2.29H17.525V0.760002Z" fill="#000001"/>
<path d="M9.90501 23.62H6.85501V25.14H9.90501V23.62Z" fill="#000001"/>
<path d="M9.90501 2.29H6.85501V3.81H9.90501V2.29Z" fill="#000001"/>
<path d="M8.37501 6.86H6.85501V9.91H8.37501V6.86Z" fill="#000001"/>
<path d="M6.85502 22.1H5.33502V23.62H6.85502V22.1Z" fill="#000001"/>
<path d="M6.85502 3.81001H5.33502V5.33001H6.85502V3.81001Z" fill="#000001"/>
<path d="M5.33502 20.57H3.80502V22.1H5.33502V20.57Z" fill="#000001"/>
<path d="M5.33502 5.33H3.80502V6.86H5.33502V5.33Z" fill="#000001"/>
<path d="M3.805 17.53H2.285V20.57H3.805V17.53Z" fill="#000001"/>
<path d="M3.805 6.86H2.285V9.91H3.805V6.86Z" fill="#000001"/>
<path d="M2.28501 9.91H0.765015V17.53H2.28501V9.91Z" fill="#000001"/>
</g>
<defs>
<clipPath id="clip0_1128_24735">
<rect width="32" height="32" fill="white"/>
</clipPath>
</defs>
</svg>
