<svg width="32" height="32" viewBox="0 0 32 32" fill="none" xmlns="http://www.w3.org/2000/svg">
<path d="M30.475 10.665H25.905V12.185H30.475V10.665Z" fill="#000001"/>
<path d="M28.955 18.285H27.425V19.805H28.955V18.285Z" fill="#000001"/>
<path d="M28.955 3.045H27.425V4.565H28.955V3.045Z" fill="#000001"/>
<path d="M27.425 16.755H25.905V18.285H27.425V16.755Z" fill="#000001"/>
<path d="M27.425 4.565H25.905V6.095H27.425V4.565Z" fill="#000001"/>
<path d="M25.905 15.235H24.385V16.755H25.905V15.235Z" fill="#000001"/>
<path d="M25.905 6.095H24.385V7.615H25.905V6.095Z" fill="#000001"/>
<path d="M16.765 15.235H18.285V16.755H19.815V15.235H21.335V13.715H22.855V10.665H21.335V9.145H18.285V10.665H16.765V12.185H15.235V13.715H16.765V15.235Z" fill="#000001"/>
<path d="M21.335 1.525H19.815V6.095H21.335V1.525Z" fill="#000001"/>
<path d="M18.285 16.755H16.765V18.285H18.285V16.755Z" fill="#000001"/>
<path d="M16.765 18.285H15.235V19.805H16.765V18.285Z" fill="#000001"/>
<path d="M16.765 6.095H15.235V7.615H16.765V6.095Z" fill="#000001"/>
<path d="M15.235 19.805H13.715V21.335H15.235V19.805Z" fill="#000001"/>
<path d="M15.235 13.715H13.715V15.235H15.235V13.715Z" fill="#000001"/>
<path d="M15.235 4.565H13.715V6.095H15.235V4.565Z" fill="#000001"/>
<path d="M13.715 21.335H12.195V22.855H13.715V21.335Z" fill="#000001"/>
<path d="M13.715 15.235H12.195V16.755H13.715V15.235Z" fill="#000001"/>
<path d="M13.715 3.045H12.195V4.565H13.715V3.045Z" fill="#000001"/>
<path d="M12.195 22.855H10.665V24.375H12.195V22.855Z" fill="#000001"/>
<path d="M12.195 16.755H10.665V18.285H12.195V16.755Z" fill="#000001"/>
<path d="M10.665 24.375H9.145V25.905H10.665V24.375Z" fill="#000001"/>
<path d="M10.665 18.285H9.145V19.805H10.665V18.285Z" fill="#000001"/>
<path d="M9.145 25.905H7.625V27.425H9.145V25.905Z" fill="#000001"/>
<path d="M9.145 19.805H7.625V21.335H9.145V19.805Z" fill="#000001"/>
<path d="M7.625 27.425H6.095V28.945H7.625V27.425Z" fill="#000001"/>
<path d="M7.625 21.335H6.095V22.855H7.625V21.335Z" fill="#000001"/>
<path d="M6.095 22.855H4.575V24.375H6.095V22.855Z" fill="#000001"/>
<path d="M6.095 28.945H3.045V30.475H6.095V28.945Z" fill="#000001"/>
<path d="M4.575 24.375H3.045V25.905H4.575V24.375Z" fill="#000001"/>
<path d="M3.045 25.905H1.525V28.945H3.045V25.905Z" fill="#000001"/>
</svg>
